# xmcd CD database file
#
# Track frame offsets:
#	150
#	11619
#	23688
#	34163
#	49420
#	62036
#	78592
#	91405
#	109076
#	125634
#	142433
#	157383
#	168017
#	174707
#	189721
#	204347
#	219955
#	239746
#	254975
#	267174
#	278567
#	290583
#	305403
#	316234
#
# Disc length: 4480 seconds
#
# Revision: 0
# Processed by: cddbd v1.4PL0 Copyright (c) Steve Scherf et al.
# Submitted via: Feurio! 1.66 - http://www.feurio.com
#
DISCID=72117e18
DTITLE=Various Artist - Honeysuckle Rose (Original Soundtrack Recording)
DYEAR=1900
DGENRE=Country
TTITLE0=??? - On The Road Again
TTITLE1=??? - Pick Up The Tempo
TTITLE2=??? - Heaven Or Hell
TTITLE3=??? - Fiddlin' Around
TTITLE4=??? - Blue Eyes Crying In The Rain
TTITLE5=??? - Working Man Blues
TTITLE6=??? - Jumpin' Cotton Eyed Joe
TTITLE7=??? - Whyskey River
TTITLE8=??? - Bloody Mary Morning
TTITLE9=??? - Loving You Was Easier (Than Anything I'll Ever Do Again)
TTITLE10=??? - I Don't Do Windows
TTITLE11=??? - Coming Back To Texas
TTITLE12=??? - If You Want Me To Love You I Will
TTITLE13=??? - It's Not Supposed To Be That Way
TTITLE14=??? - You Show Me Yours (And I'll Show You Mine)
TTITLE15=??? - If You Could Touch Her At All
TTITLE16=??? - Angel Flying Too Close To The Ground
TTITLE17=??? - I Guess I've Come To Live Here In Your Eyes
TTITLE18=??? - Angel Eyes (Angel Eyes)
TTITLE19=??? - So You Think You're A Cowboy
TTITLE20=??? - Make The World Go Away
TTITLE21=??? - Two Sides To Every Story
TTITLE22=??? - A Song For You
TTITLE23=??? - Uncloudy Day
EXTD=
EXTT0=
EXTT1=
EXTT2=
EXTT3=Johnny Gimble
EXTT4=
EXTT5=Jody Payne
EXTT6=Johnny Gimble
EXTT7=
EXTT8=
EXTT9=Willie Nelson and Dyan Canon
EXTT10=Hank Cochran
EXTT11=Kenneth Threadgill
EXTT12=Amy Irving
EXTT13=
EXTT14=Willie Nelson and Amy Irving
EXTT15=
EXTT16=
EXTT17=
EXTT18=Willie Nelson and Emmylou Harris
EXTT19=Emmylou Harris
EXTT20=Hank Cochran and Jeannie Seely
EXTT21=Dyan Cannon
EXTT22=
EXTT23=Willie Nelson and Dyan Cannon
PLAYORDER=
